<?xml version="1.0" standalone="no"?>
<!DOCTYPE svg PUBLIC "-//W3C//DTD SVG 20010904//EN"
 "http://www.w3.org/TR/2001/REC-SVG-20010904/DTD/svg10.dtd">
<svg version="1.0" xmlns="http://www.w3.org/2000/svg"
 width="40pt" height="40pt" viewBox="0 0 300.000000 300.000000"
 preserveAspectRatio="xMidYMid meet">

<g transform="translate(0.000000,300.000000) scale(0.100000,-0.100000)"
fill="#9B52E0" stroke="none">
<path d="M1440 2180 c-81 -12 -127 -30 -190 -72 -151 -100 -223 -268 -199
-460 31 -250 154 -540 285 -675 70 -71 72 -68 -49 -77 -77 -6 -111 -19 -81
-30 10 -4 80 -12 156 -18 195 -16 502 9 433 36 -9 3 -42 9 -73 12 -32 3 -72 7
-90 10 l-33 5 51 46 c137 123 281 458 305 708 14 148 -33 285 -133 384 -104
104 -245 153 -382 131z m168 -216 c215 -107 134 -435 -107 -434 -131 1 -230
99 -231 228 -1 176 179 285 338 206z"/>
</g>
</svg>
